<?xml version="1.0" encoding="UTF-8" standalone="no"?>
<!-- Created with Inkscape (http://www.inkscape.org/) -->

<svg
   xmlns:dc="http://purl.org/dc/elements/1.1/"
   xmlns:cc="http://creativecommons.org/ns#"
   xmlns:rdf="http://www.w3.org/1999/02/22-rdf-syntax-ns#"
   xmlns:svg="http://www.w3.org/2000/svg"
   xmlns="http://www.w3.org/2000/svg"
   xmlns:sodipodi="http://sodipodi.sourceforge.net/DTD/sodipodi-0.dtd"
   xmlns:inkscape="http://www.inkscape.org/namespaces/inkscape"
   width="461.39737"
   height="223.20308"
   id="svg2"
   version="1.1"
   inkscape:version="0.48.5 r10040"
   sodipodi:docname="managa-logo.svg">
  <defs
     id="defs4" />
  <sodipodi:namedview
     id="base"
     pagecolor="#ffffff"
     bordercolor="#666666"
     borderopacity="1.0"
     inkscape:pageopacity="0.0"
     inkscape:pageshadow="2"
     inkscape:zoom="1.4"
     inkscape:cx="354.47361"
     inkscape:cy="32.412923"
     inkscape:document-units="px"
     inkscape:current-layer="layer1"
     showgrid="false"
     inkscape:window-width="1678"
     inkscape:window-height="1029"
     inkscape:window-x="1366"
     inkscape:window-y="19"
     inkscape:window-maximized="0"
     fit-margin-top="0"
     fit-margin-left="0"
     fit-margin-right="0"
     fit-margin-bottom="0" />
  <metadata
     id="metadata7">
    <rdf:RDF>
      <cc:Work
         rdf:about="">
        <dc:format>image/svg+xml</dc:format>
        <dc:type
           rdf:resource="http://purl.org/dc/dcmitype/StillImage" />
        <dc:title></dc:title>
      </cc:Work>
    </rdf:RDF>
  </metadata>
  <g
     inkscape:label="Layer 1"
     inkscape:groupmode="layer"
     id="layer1"
     transform="translate(-17.573629,-65.877094)">
    <path
       style="fill:#000000;fill-opacity:1;fill-rule:nonzero;stroke:none"
       id="path2999"
       d="m 17.573647,223.6543 c 1.256979,-5.1764 2.184993,-10.42613 3.472197,-15.59399 1.61049,-6.33131 2.396026,-12.8188 3.566947,-19.23472 0.583688,-3.26437 1.075139,-6.54281 1.62605,-9.81281 0.725189,-3.91586 1.175011,-7.8622 1.610443,-11.81891 0.26465,-4.3652 1.220974,-8.61137 2.292293,-12.83392 1.052731,-3.18218 1.539026,-6.49398 2.228267,-9.7596 0.75721,-3.34909 1.456417,-6.70327 1.880937,-10.11206 0.364446,-2.594 0.76985,-5.18043 1.310069,-7.74395 0.645309,-2.4185 0.881448,-4.90203 1.166278,-7.37902 0.443047,-3.32887 0.951392,-6.64469 1.53043,-9.95222 0.414613,-2.2423 0.509267,-4.52149 0.788493,-6.78124 0.421939,-2.20402 0.768262,-4.418976 1.132367,-6.632592 0.418835,-2.090738 0.597789,-4.215315 0.93316,-6.318993 0.459119,-2.456684 1.133698,-4.863128 1.570383,-7.323854 0.409112,-2.328459 1.124041,-4.581056 1.535846,-6.909488 0.751628,-5.514436 -0.94399,-3.835852 9.877974,-7.126803 0.476423,-0.14488 0.159974,0.982997 0.239961,1.474496 0.563444,7.563338 1.0957,15.121667 1.995664,22.655091 0.670319,5.297112 1.607211,10.558053 2.630005,15.797253 0.706268,3.68582 1.427006,7.35552 2.391233,10.98381 1.649514,5.33931 2.101288,10.93342 3.118503,16.41123 1.008131,5.21203 1.993205,10.43801 3.312476,15.58215 0.786438,3.11382 1.818554,6.15598 2.745224,9.22995 0.896167,2.85356 1.462891,5.79273 2.071694,8.71633 0.688545,3.02847 1.694752,5.99212 2.992408,8.81345 0.90659,2.21582 1.968627,4.36175 2.894913,6.56889 0.90037,1.93124 1.311582,4.03414 2.088486,6.0091 0.851257,1.71286 1.279518,3.55432 1.726529,5.39866 0.596754,1.96307 0.63908,4.02296 0.957917,6.03325 0.320387,1.35808 0.501199,2.73671 0.668793,4.11941 -0.699266,-3.55638 0.170058,0.47163 -9.138064,4.19923 -0.329473,0.13194 0.314928,-0.63706 0.445096,-0.96724 0.56443,-1.4317 0.938751,-2.94336 1.361182,-4.42022 1.402454,-5.52078 2.179513,-11.19384 3.102025,-16.81334 0.632523,-4.46617 1.430319,-8.90838 2.293586,-13.33525 0.69777,-3.79861 1.420066,-7.59465 2.332816,-11.34804 0.63979,-3.1187 1.341044,-6.2004 2.354192,-9.21895 1.622527,-4.32454 2.715896,-8.79995 3.793993,-13.28266 1.085138,-4.67994 2.41086,-9.29608 3.7876,-13.8968 0.815875,-2.85334 1.505101,-5.74069 2.255014,-8.61184 0.517363,-1.93192 0.701139,-3.92483 1.044685,-5.8895 0.335004,-2.33522 0.952048,-4.614 1.393835,-6.92804 0.324155,-2.56418 0.587113,-5.13485 1.080163,-7.674157 0.36273,-1.898052 0.89026,-3.757968 1.2713,-5.651657 0.28844,-1.494335 0.35725,-3.015576 0.39383,-4.533038 -0.0814,-1.644579 0.17139,-3.2374 0.58969,-4.82046 0.42656,-1.45664 0.40365,-2.988953 0.56869,-4.489888 0.29178,-1.430828 0.63088,-2.822508 0.71141,-4.283981 -0.047,-1.159236 0.38965,-2.395524 0.17614,-3.546843 3.21433,-1.378061 6.31432,-3.061359 9.64299,-4.134184 0.31078,-0.100167 0.15926,0.633452 0.22905,0.952436 0.53689,2.453717 0.86031,4.94043 1.23124,7.422633 0.33965,3.161362 1.3101,6.190007 2.07973,9.259215 0.40796,2.06315 0.87606,4.112213 1.1258,6.202062 0.12409,3.075421 0.22053,6.143002 0.55127,9.205257 0.54293,4.230585 0.96265,8.474255 1.36018,12.720625 0.86616,6.31418 1.62647,12.63788 2.31594,18.97375 0.36362,3.81085 0.78303,7.6119 1.52233,11.36947 0.57245,2.57957 1.28601,5.1222 1.98765,7.6682 0.87738,2.56329 1.23677,5.23999 1.61952,7.90781 0.33813,2.79543 0.97245,5.53912 1.5704,8.28656 0.41003,2.25888 1.06514,4.46066 1.65929,6.67501 0.63754,2.10644 0.84151,4.29565 1.19519,6.4554 0.3098,1.59548 0.54684,3.20106 1.0019,4.76359 0.3637,1.47826 1.05651,2.83662 1.44094,4.30544 0.33061,1.45055 0.3047,2.94034 0.60212,4.39464 0.24916,1.47631 0.4899,2.9483 0.78624,4.41721 0.18954,1.57551 0.40141,3.12976 0.7395,4.68029 0.0429,0.22487 0.0857,0.44974 0.12862,0.67461 0,0 -9.36512,4.98606 -9.36512,4.98606 l 0,0 c -0.0373,-0.21577 -0.0746,-0.43153 -0.11188,-0.64729 -0.32537,-1.56077 -0.58572,-3.11211 -0.73303,-4.7014 -0.28442,-1.46504 -0.58406,-2.91949 -0.7995,-4.39579 -0.31222,-1.44636 -0.32481,-2.90744 -0.57018,-4.36514 -0.34968,-1.46201 -1.05184,-2.8041 -1.39783,-4.27069 -0.50144,-1.59581 -0.77539,-3.23466 -1.06374,-4.87958 -0.38152,-2.12857 -0.43448,-4.31891 -1.08154,-6.40251 -0.61366,-2.22871 -1.36546,-4.42771 -1.70158,-6.72356 -0.55397,-2.77713 -1.22801,-5.5336 -1.58379,-8.34672 -0.41116,-2.62091 -0.66413,-5.27705 -1.5735,-7.79266 -0.69611,-2.57729 -1.43198,-5.14367 -2.00698,-7.75229 -0.69666,-3.82474 -1.10187,-7.67813 -1.34841,-11.55873 -0.63467,-6.34144 -1.35327,-12.67492 -2.3138,-18.97642 -0.47476,-4.21195 -1.07069,-8.40804 -1.51663,-12.62361 -0.37791,-3.04026 -0.53565,-6.088002 -0.67076,-9.146435 -0.21856,-2.058261 -0.65051,-4.073727 -1.04155,-6.103976 -0.69407,-3.128538 -1.66322,-6.201422 -1.98342,-9.404251 -0.30969,-1.944325 -0.55487,-3.905701 -0.98274,-5.828993 -0.10574,-0.475282 -0.23446,-0.945189 -0.35812,-1.416125 -0.083,-0.315944 -0.52558,-0.751809 -0.26171,-0.944372 2.9199,-2.130898 6.1793,-3.752649 9.26895,-5.628974 -0.39822,0.632547 -0.0207,2.707159 -0.28934,3.521068 -0.0786,0.959322 -0.0609,0.463878 -0.0442,1.48662 -0.0748,0.966536 -0.45057,1.897202 -0.65018,2.838458 -0.17221,1.55383 -0.19887,3.124074 -0.51081,4.647487 -0.42816,1.504762 -0.82183,2.993602 -0.68912,4.57703 -0.0251,1.573099 -0.0725,3.150906 -0.33668,4.705593 -0.3514,1.91266 -0.89795,3.777108 -1.28948,5.681315 -0.5751,2.520526 -0.89277,5.089339 -1.15822,7.658505 -0.31766,2.3269 -1.015,4.57139 -1.30882,6.90407 -0.36426,1.99485 -0.56527,4.015 -1.0592,5.98567 -0.74458,2.90881 -1.52717,5.80887 -2.33393,8.70154 -1.44654,4.5889 -2.83394,9.19669 -3.918143,13.88728 -1.067622,4.45828 -2.038053,8.94637 -3.576835,13.27383 -0.282459,0.87796 -0.632697,1.73341 -0.906671,2.61406 -0.668727,2.1495 -1.022691,4.38419 -1.552102,6.56806 -0.940968,3.73033 -1.68444,7.50475 -2.331808,11.29683 -0.925893,4.44506 -1.809089,8.901 -2.490023,13.39099 -0.518623,3.09949 -1.081937,6.19168 -1.555758,9.29851 -0.09985,0.6547 -0.676869,4.76689 -0.832038,5.58325 -0.124076,0.65278 -0.307984,1.29275 -0.461976,1.93913 -0.417942,1.48252 -0.83516,2.96372 -1.257684,4.44445 -0.105732,0.37053 0.02979,0.90621 -0.291751,1.11855 -9.455793,6.24457 -7.780161,8.62081 -9.994134,5.03067 -0.09431,-1.37527 -0.282028,-2.73756 -0.585096,-4.08362 -0.329178,-1.98345 -0.307053,-4.02574 -0.898625,-5.9675 -0.45297,-1.79743 -0.833861,-3.60071 -1.677643,-5.27138 -0.758094,-1.97674 -1.159882,-4.07467 -2.050545,-6.00428 -0.897234,-2.20745 -1.964656,-4.34016 -2.848636,-6.55363 -1.300971,-2.90486 -2.30252,-5.94997 -3.043121,-9.04449 -0.626139,-2.88811 -1.226823,-5.78324 -2.086186,-8.61399 -0.90872,-3.1041 -1.910465,-6.18245 -2.652324,-9.33185 -1.271118,-5.19315 -2.219644,-10.4633 -3.192611,-15.71866 -1.010102,-5.43334 -1.605837,-10.96017 -3.241773,-16.2564 -0.967912,-3.65064 -1.871264,-7.30606 -2.426848,-11.04743 -0.997284,-5.30648 -1.837806,-10.64575 -2.373882,-16.020162 -0.811479,-7.459825 -1.410508,-14.942711 -2.356891,-22.38597 -0.974875,-4.698233 -0.636503,-1.135378 8.995543,-6.623976 0.05933,-0.03381 -0.07311,0.119059 -0.0853,0.186245 -0.150764,0.830687 -0.09542,1.69401 -0.275227,2.521858 -0.386257,2.345531 -1.077997,4.602635 -1.572981,6.922131 -0.380965,2.465178 -1.047414,4.862792 -1.548196,7.304588 -0.33224,2.10953 -0.533346,4.232063 -0.922755,6.332865 -0.408252,2.194016 -0.642821,4.419587 -1.181571,6.591434 -0.257555,2.283927 -0.371317,4.580847 -0.768729,6.846517 -0.63096,3.28341 -1.236355,6.5668 -1.596435,9.89432 -0.236558,2.50893 -0.39249,5.03057 -1.086675,7.46934 -0.574184,2.53667 -0.945139,5.10829 -1.376051,7.67205 -0.441291,3.43297 -1.122628,6.81636 -1.854901,10.19749 -0.707416,3.28238 -1.173795,6.62231 -2.247208,9.81955 -1.113759,4.19506 -2.19403,8.40775 -2.481181,12.75898 -0.427877,3.92795 -0.691073,7.87104 -1.357053,11.76901 -0.602588,3.31338 -1.217088,6.62381 -1.830235,9.93537 -1.340812,6.40636 -2.122153,12.90753 -3.568054,19.29635 -1.297034,5.08075 -2.285995,10.24235 -3.255904,15.39466 0,0 -9.480184,4.63482 -9.480184,4.63482 z"
       inkscape:connector-curvature="0" />
    <path
       style="fill:#000000;fill-opacity:1;fill-rule:nonzero;stroke:none"
       id="path3001"
       d="m 202.08828,170.47586 c -2.47638,-0.17593 -4.90625,0.18802 -7.31896,0.69722 -2.27645,0.32797 -4.54151,0.68121 -6.81156,1.05676 -1.79368,0.0367 -3.38768,0.77933 -5.08493,1.24237 -1.81595,0.7486 -3.64899,1.44755 -5.54638,1.96162 -2.25442,0.7489 -4.60857,1.10524 -6.87309,1.81606 -1.95879,0.44358 -3.84928,1.12163 -5.82025,1.51206 -1.62821,0.22472 -3.1647,0.84229 -4.75637,1.23522 -1.33901,0.52559 -2.6622,1.11037 -4.04754,1.50391 -1.62205,0.50297 -3.22449,1.03582 -4.6982,1.89073 15.22704,-9.18538 8.61832,-5.36671 5.5992,-2.49348 -0.85105,0.9975 -1.38391,2.25176 -1.92853,3.43885 -0.52033,1.34821 -0.98042,2.71164 -1.25385,4.13171 -0.29628,1.3893 -0.19429,2.7538 0.0228,4.13974 0.17856,1.45298 0.58264,2.83906 1.21654,4.15285 0.69516,1.47802 1.48093,2.91285 2.25394,4.352 1.03981,1.6936 2.4486,3.12219 3.67972,4.6749 1.11159,1.51065 2.82281,2.17722 4.40471,3.04671 1.5336,0.83925 3.11097,1.55265 4.79461,2.03134 1.80501,0.46256 3.67431,0.50071 5.52603,0.53882 1.86498,0.0212 3.73008,0.004 5.59511,0.003 1.99604,0.0245 3.95612,-0.43264 5.90561,-0.80361 1.97829,-0.20684 3.86563,-0.78769 5.76587,-1.33857 1.84667,-0.3108 3.66473,-0.72826 5.50097,-1.09124 1.39485,-0.0871 2.67247,-0.62746 4.03888,-0.86681 1.30016,-0.11676 2.48645,-0.662 3.58706,-1.33581 0.86981,-0.36547 1.71061,-0.72249 2.51894,-1.21492 0,0 -8.25156,6.64814 -8.25156,6.64814 l 0,0 c -0.84476,0.40981 -1.71768,0.75808 -2.53978,1.21439 -1.20889,0.54675 -2.45359,0.92424 -3.77311,1.10527 -1.3314,0.32819 -2.65298,0.66172 -4.01562,0.84365 -1.8113,0.38736 -3.64553,0.66246 -5.43461,1.1451 -1.9093,0.55046 -3.84294,0.95556 -5.80853,1.25059 -1.98981,0.38933 -4.00553,0.70672 -6.04028,0.65653 -1.87033,0.009 -3.74129,0.0184 -5.61111,-0.0335 -1.91867,-0.0729 -3.84938,-0.18155 -5.69282,-0.77025 -1.71197,-0.56848 -3.35057,-1.30769 -4.91916,-2.20061 -1.70952,-0.91909 -3.45035,-1.79434 -4.61762,-3.41633 -1.26402,-1.60148 -2.7177,-3.06634 -3.77925,-4.81871 -0.81226,-1.43591 -1.58408,-2.90304 -2.29713,-4.39023 -0.68653,-1.40135 -1.18567,-2.86143 -1.37611,-4.42097 -0.24171,-1.48601 -0.46693,-2.94309 -0.17897,-4.44704 0.21899,-1.50067 0.64908,-2.92188 1.15178,-4.34852 0.48814,-1.30472 1.18628,-2.51947 1.76551,-3.78048 3.16847,-3.81652 8.60075,-5.73492 12.4416,-8.22243 1.56069,-0.71914 3.19413,-1.24249 4.82774,-1.7699 1.34953,-0.49272 2.68112,-1.0438 4.06247,-1.44329 1.58368,-0.44896 3.15434,-0.95037 4.7865,-1.2012 1.92541,-0.46589 3.82107,-1.05069 5.74118,-1.53811 2.29297,-0.60651 4.62185,-1.08017 6.87596,-1.82861 1.87732,-0.60896 3.70301,-1.35023 5.57341,-1.97512 1.69087,-0.52474 3.36553,-0.99811 5.14396,-1.12867 2.2568,-0.37376 4.52798,-0.64368 6.77574,-1.06868 2.47732,-0.44841 4.97196,-0.62869 7.49068,-0.57005 0,0 -8.57122,6.22735 -8.57122,6.22735 z"
       inkscape:connector-curvature="0" />
    <path
       style="fill:#000000;fill-opacity:1;fill-rule:nonzero;stroke:none"
       id="path3003"
       d="m 210.46303,134.88781 c 0.12664,6.13206 0.71115,12.23846 0.93309,18.36745 0.16924,7.93087 0.16841,15.86332 0.29383,23.79503 0.1369,4.18812 -0.0188,8.38502 0.19132,12.5702 0.26839,2.40644 0.33733,4.82208 0.47484,7.23658 0.006,1.53 -0.23766,3.04595 -0.36699,4.56807 -0.12247,1.77892 -0.12481,3.56331 -0.13015,5.3456 -0.0222,1.8665 -0.0135,3.73309 -0.005,5.59964 0.0113,1.6737 0.007,3.34741 -0.002,5.0211 0.0555,1.23126 -0.12012,2.45156 -0.28496,3.66739 0,0 -9.49413,4.67067 -9.49413,4.67067 l 0,0 c 0.17274,-1.17267 0.42214,-2.34844 0.36173,-3.53955 -0.01,-1.6722 -0.0143,-3.3444 -0.005,-5.01662 0.006,-1.86722 0.009,-3.73442 -0.004,-5.60162 0.0126,-1.80119 0.035,-3.60243 0.0949,-5.40277 0.0779,-1.49466 0.29359,-2.97195 0.43809,-4.46051 -0.11895,-2.43222 -0.0695,-4.86563 -0.37333,-7.29021 -0.22625,-4.23895 0.0587,-8.49157 0.0183,-12.73433 0.0762,-7.92292 0.0461,-15.84744 -0.26714,-23.76574 -0.27297,-6.07635 -0.65909,-12.14579 -1.19914,-18.20467 0,0 9.32661,-4.82571 9.32661,-4.82571 z"
       inkscape:connector-curvature="0" />
    <path
       style="fill:#000000;fill-opacity:1;fill-rule:nonzero;stroke:none"
       id="path3025"
       d="m 219.50509,207.00213 c -0.19637,-2.26445 -0.69493,-4.49425 -1.21377,-6.70372 -0.44503,-2.14837 -0.6743,-4.33106 -0.80468,-6.51854 -0.0905,-1.75136 -0.0643,-3.50571 -0.0614,-5.25861 0.0978,-1.69124 0.398,-3.36065 0.5596,-5.04631 -0.001,-1.34486 0.26929,-2.64335 0.5323,-3.95292 0.25741,-1.50482 0.60565,-2.98854 0.81623,-4.50163 0.0948,-1.61412 0.41125,-3.19773 0.63917,-4.79524 0.22834,-1.71951 0.27162,-3.45577 0.29996,-5.18788 0.0123,-1.58679 0.0187,-3.17366 0.0167,-4.76051 -0.01,-1.57996 -0.0653,-3.15277 0.15544,-4.7204 0.26321,-1.40743 0.40918,-2.82917 0.4883,-4.25749 0.14026,-1.25235 0.46415,-2.46929 0.61832,-3.72126 -4.7e-4,-0.16592 -9.5e-4,-0.33183 -0.001,-0.49775 0,0 9.4352,-4.88308 9.4352,-4.88308 l 0,0 c 0.024,0.22041 0.0481,0.44083 0.0722,0.66124 -0.10784,1.24421 -0.29915,2.47191 -0.65395,3.67239 -0.0593,1.46249 -0.16139,2.92508 -0.44032,4.36479 -0.27385,1.51971 -0.28754,3.03087 -0.244,4.57551 0.002,1.59149 0.0189,3.18301 -0.004,4.77445 -0.0284,1.76972 -0.0794,3.54049 -0.25055,5.30316 -0.20488,1.59936 -0.55874,3.17218 -0.63445,4.78445 -0.17938,1.52973 -0.50749,3.02674 -0.76651,4.54072 -0.21548,1.29724 -0.65016,2.54386 -0.59576,3.87558 -0.1388,1.6683 -0.40047,3.31814 -0.62673,4.97594 -0.002,1.73611 0.001,3.47256 0.0433,5.20824 0.0817,2.13514 0.24339,4.27235 0.68569,6.36742 0.51456,2.24071 1.00369,4.49117 1.32521,6.76879 0,0 -9.39036,4.93266 -9.39036,4.93266 z"
       inkscape:connector-curvature="0" />
    <path
       style="fill:#000000;fill-opacity:1;fill-rule:nonzero;stroke:none"
       id="path3027"
       d="m 236.28565,155.26717 c 2.05478,-1.13131 4.33419,-1.74532 6.57779,-2.38123 1.79812,-0.51005 3.65342,-0.69779 5.51329,-0.77502 1.50695,0.0508 2.76392,0.75728 4.0797,1.39439 1.38612,0.46582 2.6126,1.19333 3.82882,1.9832 1.16783,0.63899 2.37594,1.21403 3.42229,2.04436 0.9771,0.59886 1.66697,1.52504 2.51052,2.27641 0.748,0.87918 1.45959,1.79667 2.15465,2.72019 0.74768,0.78587 1.48972,1.56704 2.09953,2.46913 0.76549,1.19063 1.42969,2.44006 2.15385,3.65598 0.8668,1.19567 1.3302,2.55195 1.60194,3.98705 -0.0138,1.22602 0.0248,2.45517 0.0145,3.6838 -0.15389,1.23609 -0.31065,2.47441 -0.59288,3.68861 -0.38388,1.36268 -0.45908,2.77665 -0.64334,4.17185 -0.15066,1.34665 -0.62824,2.60637 -1.00259,3.8966 -0.33146,1.27514 -0.37585,2.59676 -0.41302,3.90645 0.0766,1.46358 -0.18845,2.89444 -0.41139,4.3322 -0.0873,1.26071 -0.60096,2.42309 -0.61838,3.68617 -0.0385,1.18238 -0.17983,2.36663 -0.35043,3.53751 -0.17383,0.93274 -0.50921,1.80681 -0.87128,2.67782 0,0 -9.63491,4.48595 -9.63491,4.48595 l 0,0 c 0.28737,-0.87144 0.76673,-1.64057 0.93286,-2.55268 0.34927,-1.05525 0.23379,-2.21666 0.4772,-3.30346 -0.0205,-0.33173 -0.0785,-1.03775 -0.0401,-1.36753 0.0992,-0.85186 0.63421,-1.61121 0.58937,-2.48932 0.19615,-1.4038 0.56284,-2.78506 0.46716,-4.21265 0.0213,-1.37649 0.0431,-2.76145 0.29569,-4.11914 0.2924,-1.30168 0.88648,-2.49355 1.0538,-3.82491 0.29787,-1.39351 0.21555,-2.84946 0.60629,-4.23285 0.29026,-1.16969 0.46495,-2.33832 0.65034,-3.53002 0.18935,-1.14293 -0.19725,-2.317 0.12416,-3.45857 -0.20384,-1.32776 -0.60175,-2.55791 -1.41778,-3.64881 -0.70297,-1.19923 -1.35195,-2.43153 -2.12659,-3.58619 -0.61631,-0.8739 -1.39156,-1.60871 -2.08318,-2.42148 -0.66694,-0.86799 -1.30932,-1.76432 -2.05117,-2.56756 -0.79009,-0.75816 -1.52622,-1.57981 -2.45188,-2.18287 -1.07301,-0.75127 -2.25331,-1.3154 -3.3716,-1.99358 -1.18181,-0.77315 -2.45861,-1.32515 -3.75943,-1.87056 -1.19554,-0.5849 -2.39238,-1.07117 -3.75782,-0.96068 -1.80094,0.1291 -3.58731,0.39533 -5.31759,0.92986 -2.25387,0.68172 -4.46805,1.44515 -6.58555,2.4861 0,0 8.3471,-6.53452 8.3471,-6.53452 z"
       inkscape:connector-curvature="0" />
    <path
       style="fill:#000000;fill-opacity:1;fill-rule:nonzero;stroke:none"
       id="path3033"
       d="m 302.15855,163.59596 c -4.72997,1.15646 -9.3317,2.80037 -13.95192,4.33153 -2.45534,0.97403 -5.0808,1.72461 -7.36325,3.08319 17.09216,-9.18123 8.30619,-5.91508 6.1206,-2.7501 -0.7812,1.38391 -1.2289,2.91051 -1.8431,4.3695 -0.59826,1.49315 -0.9852,3.06722 -1.34082,4.63367 -0.29771,1.71264 -0.59932,3.42029 -0.76992,5.15064 -0.20974,1.53068 -0.36424,3.04782 -0.22265,4.58836 0.3773,2.24163 0.6642,4.46549 0.79539,6.7358 0.17502,2.37256 0.30695,4.7479 0.36567,7.12623 -0.0126,1.79072 0.0231,3.5562 0.40409,5.3096 0.38878,1.67185 1.05263,3.26489 1.78786,4.81071 0.67884,1.21243 1.65795,2.18245 2.57517,3.20676 0.95625,1.24113 2.00731,2.19395 3.53067,2.61248 1.501,0.50794 3.08109,0.98329 4.67619,0.81928 1.44654,-0.22887 2.9012,-0.37669 4.36296,-0.45726 1.47481,0.0141 2.81748,-0.64094 4.21225,-1.0269 1.36779,-0.15356 2.65038,-0.56372 3.98135,-0.87516 1.21443,-0.1005 2.30324,-0.60614 3.49944,-0.81546 1.06943,-0.5155 2.23353,-0.7734 3.36573,-1.1181 0.2234,-0.0526 0.45384,-0.0813 0.67019,-0.1579 0.19603,-0.0694 0.73943,-0.3804 0.55884,-0.27729 -2.87339,1.64068 -5.75292,3.27063 -8.63812,4.89046 -0.32589,0.18296 0.60867,-0.43617 0.93338,-0.62123 3.20559,-1.82696 6.42618,-3.6275 9.63927,-5.44125 0.90123,-0.80246 2.14749,-0.69231 3.18603,-1.14102 1.18499,-0.37055 2.40101,-0.55244 3.60272,-0.86369 0.87422,-0.37021 0.42771,-0.19597 1.34011,-0.52118 0,0 -8.35801,6.51925 -8.35801,6.51925 l 0,0 c -0.92704,0.32768 -0.45851,0.17782 -1.40565,0.44942 -1.19541,0.30026 -2.42332,0.46973 -3.57677,0.927 -1.11479,0.25064 -2.11721,0.67848 -3.11478,1.23223 2.86841,-1.65949 5.7426,-3.309 8.60521,-4.97846 0.32142,-0.18744 -0.63023,0.39599 -0.95192,0.58298 -3.19434,1.85676 -6.38477,3.72119 -9.61274,5.51884 -0.3855,0.21468 -0.88734,0.15045 -1.2691,0.37633 -1.13824,0.36609 -2.28646,0.71108 -3.43053,1.05023 -1.15563,0.30648 -2.29772,0.6322 -3.47688,0.84142 -1.30401,0.35537 -2.64147,0.51832 -3.94003,0.89544 -1.42222,0.44564 -2.84731,0.85711 -4.35546,0.84357 -1.46671,0.1171 -2.92283,0.34603 -4.39339,0.40366 -1.67839,-0.12312 -3.30412,-0.54074 -4.88222,-1.12296 -1.573,-0.65417 -2.76449,-1.72074 -3.82387,-3.04969 -1.00178,-1.08786 -2.00856,-2.16604 -2.71588,-3.48171 -0.77304,-1.60934 -1.45656,-3.27515 -1.8906,-5.01005 -0.46854,-1.81787 -0.54103,-3.64746 -0.48361,-5.52034 -0.0477,-2.37191 -0.12496,-4.74316 -0.30169,-7.10957 -0.0617,-0.86825 -0.0636,-1.74088 -0.15051,-2.60697 -0.13688,-1.36362 -0.58947,-2.67822 -0.69999,-4.04522 -0.20847,-1.61438 -0.15834,-3.19021 0.12189,-4.80024 0.21896,-1.75278 0.41572,-3.49857 0.72582,-5.24219 0.31575,-1.62797 0.72952,-3.24252 1.25527,-4.8144 0.61441,-1.4787 1.09903,-2.99356 1.79111,-4.43085 0.42052,-1.1295 1.09061,-1.99125 2.14279,-2.60795 3.21714,-1.88563 6.4425,-3.75718 9.66375,-5.63577 2.37842,-1.04918 4.7867,-2.02002 7.27037,-2.79714 4.7154,-1.53041 9.40548,-3.16956 14.20997,-4.40004 0,0 -8.43068,6.41151 -8.43068,6.41151 z"
       inkscape:connector-curvature="0" />
    <path
       style="fill:#000000;fill-opacity:1;fill-rule:nonzero;stroke:none"
       id="path3035"
       d="m 308.40543,147.248 c 0.49036,3.55043 1.51443,6.98856 2.46872,10.43296 1.03598,3.20455 1.40374,6.55981 1.90287,9.87434 0.84819,4.86594 1.80612,9.72041 3.33029,14.4236 0.93962,2.85309 1.82146,5.72487 2.58264,8.63083 0.84656,2.62774 2.06738,5.11963 3.26421,7.60268 1.05629,2.01525 2.12721,4.02183 3.39703,5.91174 1.08266,2.05499 2.28662,4.0415 3.41402,6.07175 1.09153,1.77245 2.05246,3.62251 3.1657,5.38132 1.10385,1.45722 2.00489,3.04502 2.77849,4.69762 0,0 -9.20154,5.18664 -9.20154,5.18664 l 0,0 c -0.69545,-1.63863 -1.63259,-3.14463 -2.69455,-4.57171 -1.12143,-1.77865 -2.10369,-3.64037 -3.18276,-5.44447 -1.09842,-2.01108 -2.30751,-3.96127 -3.37648,-5.98927 -1.28857,-1.93903 -2.38975,-3.98367 -3.43355,-6.06351 -1.21449,-2.55077 -2.4712,-5.09459 -3.36264,-7.78053 -0.74022,-2.89859 -1.61118,-5.76224 -2.47253,-8.62663 -1.48109,-4.77155 -2.34827,-9.69257 -3.34312,-14.58262 -0.6023,-3.25102 -1.01987,-6.54991 -1.98597,-9.7216 -0.87308,-3.48618 -1.81719,-6.95381 -2.57707,-10.46793 0,0 9.32624,-4.96521 9.32624,-4.96521 z"
       inkscape:connector-curvature="0" />
    <path
       style="fill:#000000;fill-opacity:1;fill-rule:nonzero;stroke:none"
       id="path3037"
       d="m 382.96159,158.61097 c -2.18322,0.45076 -4.37835,0.92292 -6.49931,1.61609 -1.07594,0.44597 -2.26961,0.48674 -3.34571,0.92121 -0.2449,0.0989 -0.47583,0.22933 -0.71374,0.34399 2.81916,-1.59748 5.63831,-3.19495 8.45747,-4.79243 -4.68821,2.88534 13.91197,-8.55474 -10.2654,5.97242 -2.79199,1.67758 11.32633,-6.43786 8.46488,-4.88172 -3.01111,1.63753 -7.26868,4.50955 -11.01617,6.23392 -1.35336,0.50824 -2.68717,1.0295 -4.01392,1.59544 2.87054,-1.63263 5.73917,-3.26861 8.61162,-4.89789 0.16455,-0.0933 -0.32353,0.19629 -0.48786,0.29002 -3.20405,1.82746 -6.41041,3.65087 -9.61721,5.47352 -0.17533,0.0997 -0.70394,0.39393 -0.52914,0.29335 8.91355,-5.12886 11.2539,-6.63004 7.87729,-4.4834 -1.19151,0.86849 -2.37521,1.75269 -3.47661,2.73419 -1.1365,0.84647 -2.05369,1.92178 -2.89345,3.05302 -0.96885,1.15339 -1.86075,2.35774 -2.72463,3.59065 -1.03068,1.34467 -1.74169,2.88841 -2.54407,4.37152 -0.80223,1.33593 -1.18507,2.85839 -1.57187,4.35352 -0.52148,1.62971 -0.87622,3.2918 -1.07883,4.98906 -0.14997,1.4761 -0.15911,2.96113 -0.1664,4.44328 -0.0156,1.6238 -0.004,3.24772 0.002,4.87156 -0.0755,1.46394 0.0493,2.8951 0.28967,4.33586 0.14829,1.44766 0.52424,2.8521 0.79438,4.27825 0.1599,1.24319 0.33059,2.49321 0.77977,3.67032 0.41037,1.25353 1.50527,1.84709 2.59294,2.44731 1.59862,0.63083 3.07614,1.52359 4.66397,2.17123 1.19252,0.88385 2.63956,0.93232 4.02738,1.25836 1.58226,0.38905 3.20168,0.54939 4.82467,0.63156 1.44433,0.0539 2.89001,0.0465 4.33508,0.0445 0.90827,-0.27996 1.89098,-0.27016 2.80598,-0.49867 0.40625,-0.10145 0.78466,-0.29295 1.18081,-0.42857 1.62773,-0.29669 3.22546,-0.7099 4.86287,-0.96103 1.57534,-0.17624 3.09815,-0.64152 4.60856,-1.10227 1.37181,-0.20447 2.65831,-0.65514 3.9963,-0.98712 0.68804,-0.35297 1.34716,-0.74983 2.04813,-1.07675 0,0 -8.29294,6.6299 -8.29294,6.6299 l 0,0 c -0.69629,0.36747 -1.4067,0.73004 -2.17739,0.91383 -1.30943,0.38708 -2.65301,0.60201 -3.96137,0.99428 -1.52993,0.4482 -3.09514,0.77083 -4.67428,0.98986 -1.61431,0.30226 -3.22494,0.65658 -4.80665,1.09686 -1.35081,0.38192 -2.77027,0.57466 -4.16836,0.66154 -1.45723,-0.003 -2.91593,-0.006 -4.37048,-0.10544 -1.65034,-0.13636 -3.28595,-0.38035 -4.89802,-0.76582 -1.47004,-0.28134 -2.8905,-0.60018 -4.16821,-1.4255 -1.57306,-0.74441 -3.1179,-1.54795 -4.69976,-2.27542 -1.2747,-0.74231 -2.50574,-1.57737 -3.00999,-3.03579 -0.49789,-1.23093 -0.72863,-2.54833 -0.85709,-3.86556 -0.24837,-1.43654 -0.67067,-2.83531 -0.80071,-4.2912 -0.25098,-1.49546 -0.48297,-2.96923 -0.36278,-4.494 5.1e-4,-1.62409 0.002,-3.24823 -0.0123,-4.87227 0.003,-1.51707 0.006,-3.03629 0.13022,-4.54938 0.17093,-1.73178 0.43145,-3.4674 1.0195,-5.11299 0.35662,-1.56711 0.73558,-3.16747 1.43871,-4.61507 0.87407,-1.47548 1.54608,-3.05448 2.50374,-4.47885 0.89259,-1.21034 1.63323,-2.53874 2.7216,-3.59386 0.82589,-1.16751 1.64291,-2.3885 2.76714,-3.29142 1.18121,-0.90229 2.24048,-1.96161 3.46341,-2.81804 3.52622,-2.7254 0.59778,-0.50428 10.26171,-6.05175 0.17855,-0.10249 0.73086,-0.3787 0.55309,-0.27487 -2.86042,1.6706 -5.73405,3.31848 -8.60214,4.97586 -0.16467,0.0952 0.32789,-0.19278 0.49184,-0.28918 3.20932,-1.83387 6.41864,-3.66774 9.62795,-5.50161 1.31286,-0.56332 2.68945,-0.97858 3.96394,-1.63485 0.86514,-0.46645 1.35657,-0.73169 1.30086,-0.69922 -2.81458,1.64076 -11.27793,6.52928 -8.4571,4.89931 32.25445,-18.63775 -5.89974,3.42687 1.80994,-1.08764 8.34655,-4.77097 7.58721,-5.11334 13.84435,-6.7383 2.17747,-0.58378 4.37249,-1.09316 6.56644,-1.60924 0,0 -8.42406,6.44153 -8.42406,6.44153 z"
       inkscape:connector-curvature="0" />
    <path
       style="fill:#000000;fill-opacity:1;fill-rule:nonzero;stroke:none"
       id="path3039"
       d="m 399.77814,209.96003 c 0.33979,2.48618 0.68508,4.97576 1.2899,7.41288 0.46839,1.61218 0.66271,3.26558 0.73598,4.93616 0.0478,2.19107 0.0436,4.3829 0.0473,6.57438 0.005,1.73197 0.0105,3.46394 0.0133,5.19592 -0.12042,1.60232 -0.4034,3.19419 -0.74439,4.76368 -0.32482,1.86717 -0.81153,3.67493 -1.66699,5.36818 -0.9539,1.43106 -1.81644,2.9117 -2.6161,4.43364 -0.71352,1.51908 -1.66455,2.9054 -2.62666,4.27464 -1.50093,1.94173 -3.01974,3.86933 -4.53276,5.8016 -1.4375,1.81461 -2.81262,3.68461 -4.3255,5.43783 -0.96446,1.09365 -2.16639,1.92994 -3.20792,2.93949 -1.21026,1.21977 -2.66007,2.18446 -4.0834,3.13806 -1.96623,1.20974 -3.70527,2.73577 -5.55242,4.1103 -3.3544,1.92604 -6.69413,3.87787 -10.06321,5.77813 -1.36963,0.77252 -0.73682,0.24726 -2.10449,0.91276 -0.32302,0.15717 -1.24171,0.72305 -0.93005,0.54442 2.6825,-1.53751 10.72632,-6.15644 8.04259,-4.62108 -3.33201,1.90626 -6.65831,3.8225 -9.98747,5.73375 17.26495,-10.09631 3.39232,-1.73798 -2.65494,1.49607 -0.7661,0.4097 -1.58111,0.69627 -2.36699,1.06381 -1.42379,0.59044 -2.9287,0.96194 -4.35795,1.53081 -1.42688,0.53636 -2.83718,1.11214 -4.27305,1.62944 -1.58233,0.48035 -3.25499,0.55214 -4.89747,0.61634 -1.86154,0.2223 -3.46404,-0.33443 -5.06365,-1.2329 -1.95129,-1.23208 -3.59781,-2.82769 -5.22293,-4.4493 -1.41994,-1.62932 -2.59586,-3.44211 -4.05884,-5.03781 -1.01864,-1.11565 -2.34943,-1.87261 -3.30216,-3.04725 -0.97255,-1.10608 -1.34135,-2.59799 -1.98724,-3.90999 -0.82713,-1.31335 -1.34096,-2.7391 -1.63535,-4.25418 0,0 9.36187,-4.97918 9.36187,-4.97918 l 0,0 c 0.22832,1.43554 0.69137,2.76885 1.48505,3.99919 0.6023,1.23992 0.98085,2.62876 1.88239,3.67872 0.96441,1.12707 2.28868,1.89303 3.23648,3.04403 1.40156,1.61762 2.59096,3.39421 4.00342,4.99807 1.55644,1.5497 3.14268,3.08178 5.07586,4.16297 1.53457,0.73093 3.06324,0.96055 4.75916,0.75833 1.59879,-0.10662 3.20929,-0.26359 4.70687,-0.87814 1.42213,-0.55325 2.84852,-1.09642 4.28197,-1.61915 1.45269,-0.47016 2.8993,-0.97383 4.29642,-1.59154 0.7841,-0.34598 1.54079,-0.71111 2.29339,-1.12174 0.28149,-0.15358 1.12019,-0.62463 0.84318,-0.4631 -5.2976,3.08922 -18.39533,10.63163 1.7995,-1.01307 -2.68464,1.55462 -10.759,6.18265 -8.05393,4.66386 3.35812,-1.88544 6.66288,-3.86463 10.01319,-5.76391 0.41228,-0.23371 1.55161,-0.71461 1.97854,-0.91801 0.35194,-0.16767 1.3796,-0.72501 1.0454,-0.52431 -2.63272,1.58109 -5.29565,3.11131 -7.94348,4.66696 1.93174,-1.23819 3.55684,-2.89691 5.5061,-4.10864 1.40116,-0.93981 2.81623,-1.86592 4.13795,-2.91468 0.98306,-1.09728 2.12894,-1.97456 3.25261,-2.92283 1.59829,-1.69065 2.96745,-3.57763 4.42406,-5.39008 1.46875,-1.93931 3.00263,-3.82806 4.46729,-5.77062 1.0437,-1.2454 1.93674,-2.67157 2.67949,-4.11278 0.83165,-1.5096 1.53877,-3.10085 2.62392,-4.45613 0.96655,-1.55895 1.53888,-3.26292 1.787,-5.08465 0.34375,-1.50776 0.58292,-3.02414 0.83449,-4.5506 0.006,-1.73915 0.0175,-3.47827 0.0286,-5.2174 0.008,-2.17351 0.0228,-4.34788 -0.0473,-6.52058 -0.0719,-1.60537 -0.21005,-3.2055 -0.62848,-4.76437 -0.57688,-2.48489 -0.85102,-5.0178 -1.3835,-7.51273 0,0 9.3854,-4.91367 9.3854,-4.91367 z"
       inkscape:connector-curvature="0" />
    <path
       style="fill:#000000;fill-opacity:1;fill-rule:nonzero;stroke:none"
       id="path3041"
       d="m 428.71435,155.88577 c -2.09352,0.68996 -4.24064,1.14642 -6.33842,1.81586 -1.37226,0.34638 -2.73964,0.51826 -4.00383,1.18462 -3.04755,1.95881 -7.68204,4.36993 7.26548,-4.14178 0.20574,-0.11716 -0.40197,0.25087 -0.59465,0.38844 -0.3866,0.27603 -0.75011,0.58305 -1.12621,0.87322 -1.01397,0.82982 -1.94979,1.75034 -2.66295,2.8529 -0.73056,1.24749 -1.33763,2.55771 -2.00655,3.83706 -0.59837,1.18315 -1.09756,2.39679 -1.38972,3.69069 -0.3878,1.35896 -0.68826,2.72514 -0.84908,4.12989 -0.13921,1.46067 -0.13681,2.92931 -0.15448,4.39499 -0.008,1.61221 0.002,3.22445 0.007,4.83666 0.0491,1.40394 -0.0808,2.81861 0.0639,4.21728 0.24674,1.22846 0.42145,2.46647 0.72075,3.68356 0.54273,1.17516 0.93616,2.37988 1.15875,3.65411 0.21964,1.15605 0.73951,2.189 1.31147,3.20175 0.61323,1.05185 1.58354,1.80692 2.26826,2.80534 0.77945,1.06474 1.79681,1.89826 2.74664,2.79679 0.92434,0.97015 2.21742,0.98488 3.39287,1.39564 1.22307,0.34338 2.38897,0.81606 3.63897,1.06636 1.32015,0.14115 2.71092,0.41647 4.01921,0.10882 1.35847,-0.38132 2.77686,-0.44191 4.17823,-0.5144 1.58205,-0.19291 3.10642,0.0665 4.65766,0.32978 1.3814,-0.0928 2.75768,-0.23763 4.14062,-0.31291 1.41434,-0.12763 2.85476,0.0709 4.24811,-0.21448 1.40626,-0.26612 2.83902,-0.39438 4.11954,-1.07131 0.19666,-0.0901 0.77734,-0.37835 0.58998,-0.27023 -2.69231,1.55361 -10.8096,6.14388 -8.11628,4.59199 3.19771,-1.84251 6.37968,-3.713 9.60251,-5.51122 0.74947,-0.21826 0.4048,-0.0631 1.03979,-0.45226 -18.40159,11.4136 -3.1176,0.36663 3.4824,-1.71105 0.69735,-0.1982 1.41688,-0.27358 2.13466,-0.34993 0,0 -8.48749,6.35681 -8.48749,6.35681 l 0,0 c -0.67906,0.12786 -1.35772,0.2593 -1.99841,0.53004 -0.85565,0.37505 -0.41199,0.16642 -1.24501,0.58816 -0.20168,0.10211 -0.80042,0.41995 -0.60534,0.30575 2.83941,-1.6623 5.69312,-3.30004 8.53936,-4.95061 0.17512,-0.10156 -0.35068,0.20238 -0.52602,0.30356 -3.19804,1.85547 -6.39607,3.71093 -9.59411,5.5664 -0.34858,0.13913 -1.34965,0.65404 -1.02563,0.46463 18.45391,-10.78733 3.3428,-1.63407 -2.12724,1.09859 -1.40061,0.41216 -2.83447,0.65895 -4.28126,0.84974 -1.42879,0.0789 -2.86175,0.0543 -4.28964,0.16167 -1.42164,0.0998 -2.85712,0.30934 -4.27852,0.11679 -1.50012,-0.24154 -2.99334,-0.29322 -4.50932,-0.13715 -1.40229,0.11145 -2.781,0.33308 -4.16614,0.56801 -1.41645,0.009 -2.839,-0.0926 -4.2234,-0.4068 -1.24514,-0.32526 -2.45297,-0.77145 -3.69138,-1.12177 -1.35146,-0.35365 -2.63508,-0.77505 -3.63889,-1.80992 -1.01417,-0.93846 -2.06974,-1.84826 -2.88373,-2.97633 -0.71235,-1.0101 -1.71596,-1.79549 -2.31432,-2.89429 -0.6299,-1.12253 -1.20872,-2.26559 -1.48648,-3.53468 -0.18023,-1.25579 -0.55685,-2.43012 -1.11046,-3.57438 -0.32155,-1.2528 -0.52779,-2.5162 -0.78312,-3.78425 -0.23225,-1.43596 -0.0609,-2.90192 -0.11154,-4.35214 7.1e-4,-1.6146 0.002,-3.22921 -0.003,-4.84381 -0.008,-1.49423 -0.002,-2.99019 0.0994,-4.48165 0.1228,-1.42391 0.28378,-2.86965 0.80087,-4.2125 0.22453,-1.3929 0.6499,-2.68785 1.25808,-3.95998 0.64723,-1.29709 1.29122,-2.58848 1.99884,-3.85601 0.57801,-1.30043 1.48451,-2.28167 2.50121,-3.25664 0.38233,-0.31011 1.30757,-1.16687 1.6751,-1.38653 3.36,-2.00816 7.19268,-4.4502 10.95297,-6.2564 1.32638,-0.44208 2.70466,-0.64819 4.03705,-1.07322 2.10701,-0.62757 4.2799,-1.03988 6.32056,-1.8818 0,0 -8.3471,6.53453 -8.3471,6.53453 z"
       inkscape:connector-curvature="0" />
    <path
       style="fill:#000000;fill-opacity:1;fill-rule:nonzero;stroke:none"
       id="path3045"
       d="m 437.0788,137.4534 c 1.19897,2.17226 2.35119,4.38312 3.672,6.48498 0.91316,1.31819 1.41052,2.87244 2.31521,4.18956 0.90224,1.29694 1.57951,2.67989 2.16276,4.14552 0.58556,1.54641 1.35213,3.00195 2.17528,4.43239 0.68266,1.20506 1.40722,2.38386 2.10318,3.58224 0.72734,1.20185 1.2729,2.49305 1.9553,3.72236 1.06478,1.8147 2.28324,3.529 3.46546,5.26733 1.33324,1.76989 2.26081,3.72834 3.10436,5.76743 0.9684,2.40185 2.40585,4.55857 3.79364,6.72968 0.97066,1.49919 1.83156,3.03984 2.96848,4.42273 1.00777,1.14435 1.8569,2.36899 2.60908,3.69426 0.84371,1.76822 1.61046,3.56091 2.59741,5.25726 0.88567,1.59329 1.64896,3.24268 2.63247,4.78072 1.06865,1.6749 2.02269,3.41421 3.09518,5.0862 0.9707,1.67622 2.14463,3.21783 3.2424,4.80818 0,0 -9.15003,5.35715 -9.15003,5.35715 l 0,0 c -1.03282,-1.63704 -2.22619,-3.17122 -3.22173,-4.83433 -1.08181,-1.66792 -1.97953,-3.44248 -3.0872,-5.09459 -0.99565,-1.55098 -1.80852,-3.19215 -2.65474,-4.82616 -0.96893,-1.7025 -1.78178,-3.46962 -2.62216,-5.23626 -0.7513,-1.25558 -1.55783,-2.44782 -2.51849,-3.55547 -1.15245,-1.42509 -2.0292,-3.00949 -3.01753,-4.54816 -1.36797,-2.24424 -2.78101,-4.47186 -3.81464,-6.8976 -0.88631,-1.94424 -1.76859,-3.85368 -3.05945,-5.56953 -1.18625,-1.76794 -2.40984,-3.5105 -3.52655,-5.32419 -0.71132,-1.21398 -1.26602,-2.49475 -1.99143,-3.69657 -0.68696,-1.20324 -1.39091,-2.39388 -2.06842,-3.60184 -0.85119,-1.47413 -1.64304,-2.97504 -2.25591,-4.56595 -0.54601,-1.39835 -1.20356,-2.70689 -2.06288,-3.94086 -0.88575,-1.35121 -1.43683,-2.88181 -2.29081,-4.25445 -1.27584,-2.14288 -2.39128,-4.38036 -3.7386,-6.48258 0,0 9.18836,-5.29945 9.18836,-5.29945 z"
       inkscape:connector-curvature="0" />
  </g>
</svg>
